<svg version="1.1" xmlns="http://www.w3.org/2000/svg" viewBox="0 0 1136.5191955566406 207.16976928710938" width="1136.5191955566406" height="207.16976928710938">
  <!-- svg-source:excalidraw -->
  <!-- payload-type:application/vnd.excalidraw+json --><!-- payload-version:2 --><!-- payload-start -->eyJ2ZXJzaW9uIjoiMSIsImVuY29kaW5nIjoiYnN0cmluZyIsImNvbXByZXNzZWQiOnRydWUsImVuY29kZWQiOiJ4nM1X23LbNlx1MDAxMH33V3DUh75kXHUwMDE43C95q+20durJpU7dTC9cdTAwMGa0XGJJqCCSIaBITsb/U7/nXHUwMDBm9GNcdTAwMDEhiaBcXPlST6J6NKNcdTAwMTnuXHUwMDAyxGL3nLPLT3tJ0nNcdTAwMTeV6j1Lemrez4zO62zWe9LYP6ja6rLwLlx1MDAxNJ5tOa37YeXIuco+e/o0q6p0qN15WY7TfjlZblNGTVThrF/4h39Okk/hv3OQU3NcdTAwMTfWXHUwMDA2azxGouvGl2VcdTAwMTFOhFx1MDAxY1x1MDAwMIBcYiGgXaHtoT/Jqdy7XHUwMDA3mbEqelx1MDAxYVNPVOqXV29enk2BPDjRZ+6n+YvJi3jqQFx1MDAxYnPqLkxcYsiW/t7RZ11djtVvOnej9eU79pt21eV0OCqUbS5cdTAwMGVba1llfe0uXHUwMDFhXHUwMDFiiMFnxTC8I1rm/olJmVx1MDAxMlxiXHUwMDEwkIxSziBvvc1+XHUwMDA0YMpcdEVcZkFCpWTwWlxcXHUwMDA3pSnrJq7voGp+MbLzrD9cdTAwMWX68Iq8XePqrLBVVvtCxXWz1Y2phCnFklxiyVx0XHUwMDAzXHUwMDEyi3bFSOnhyDVLYuRWhVx1MDAxYWAgXHUwMDAwgoK09ubE6jhcdTAwMGY4+Cvmvc4m6rjZUEyN6SavyFfJ23CcN47nXHUwMDFkSMVXTas8W9ZcdTAwMWZyyFx1MDAwNFx1MDAwMlx1MDAwMFKKces3ulx1MDAxOF9/nSn74y2QXHUwMDE5lIU71Vx1MDAxZlVI84b1x2yizcVGSVx1MDAwM3x9XHUwMDBlX9XDrNA2c1x1MDAxZah/XHUwMDE2J9o6leTKJosrl51cdTAwMWJt7TLoRLnEaudcdTAwMWS66JupTXKf+sR8X3a29zZe/oPRw4ZcdTAwMGY9o1x1MDAwNptEcdpTtHW7sorevlx1MDAwZjbThar/ndyy1kNdZObtt1xm3GdbXHUwMDFkreFcdTAwMDFTRDvws6rxejtBwXj5ZLsw1KrvltTYolx1MDAwZYzdrFx1MDAwZZBzJFx1MDAwMIhAvUtcdTAwMWRev6ves0P4+8nx8+Px8Ncjqep37HGrXHUwMDAzXHUwMDA1OKVcZuKGZVx1MDAxNFBcdTAwMTHTXHUwMDEx9nOZQoC5QIxiXHUwMDAxOt6vrVx1MDAwZZDxlFx1MDAxMlx1MDAwZYRgXGJcdTAwMDPCxFx1MDAxNnmAhKeQSc4kXHUwMDEyXHUwMDFjbkjISi44p1QgXHUwMDA0Y5xcdTAwMGbWizWMXCKQ8Mpy+SBcdTAwMTnxaVx1MDAxNFx1MDAxZCjdLSO3YvqmZlx1MDAwN1x1MDAxOblcdTAwMTHP2GtcdTAwMTmXQty/29mZXHUwMDE41j+rMVFcdTAwMDNRnc33335cdTAwMDSH1SPHM2Rccp5cdTAwMTGBkEhcdFx1MDAxMN7AM8I8RZIjgFx1MDAwMcOSkU5j+eqAJjRcdTAwMDV+tGCYeExjKvA2QKdcdTAwMDJ67klcdTAwMDFcdKHYN+nrgIaMSuqFqNM/dt9cdTAwMDH/M3S3dUBcYlNBJCBcXFBIXHUwMDE5XCKcbKy6pSNWi6taT1x1MDAxNv+4WiXdLlEos9tcdTAwMGV3r0Du1bEgeFx1MDAxOLshvm5t2Y2g5M2sXHUwMDE0pe8uds9cdTAwMGX2L/bxUf7671xcXHUwMDBmTkbl+Hg2P3jc7GZSXHUwMDA0dkNPK4RcdTAwMTGJJ1x1MDAwN3ZcdTAwMGKSclxmIYAyXGaZ326WXHUwMDE1ws+ycN2GeKxxS+1O3ddUpn5cdTAwMDL3kiT+RypD/8nD+O6G2ThcdTAwMDXqwrrMmMCXMFx1MDAwMy6u3k91tZpcdFx1MDAxYlx1MDAxMtaLz2ZxZVx1MDAxM5/zxNwwN06XrjA/7pb7u7nJ/cSDL8XD/4dK9/xcdTAwMDfzqfN1bqdcdTAwMTZcdTAwMGYsna+KXHUwMDE1b9X7oNVs/3ak761EqWG/XG5j0OXe5Vx1MDAxNyAoN24ifQ==<!-- payload-end -->
  <defs>
    <style class="style-fonts">
      @font-face {
        font-family: "Virgil";
        src: url("https://unpkg.com/@excalidraw/excalidraw@undefined/dist/excalidraw-assets/Virgil.woff2");
      }
      @font-face {
        font-family: "Cascadia";
        src: url("https://unpkg.com/@excalidraw/excalidraw@undefined/dist/excalidraw-assets/Cascadia.woff2");
      }
      @font-face {
        font-family: "Assistant";
        src: url("https://unpkg.com/@excalidraw/excalidraw@undefined/dist/excalidraw-assets/Assistant-Regular.woff2");
      }
    </style>
    
  </defs>
  <rect x="0" y="0" width="1136.5191955566406" height="207.16976928710938" fill="transparent"/><g transform="translate(225.84890747070312 52.6414794921875) rotate(0 295.7697448730469 25)"><text x="0" y="0" font-family="Virgil, Segoe UI Emoji" font-size="20px" fill="#1e1e1e" text-anchor="start" style="white-space: pre;" direction="ltr" dominant-baseline="text-before-edge">Organisation</text><text x="0" y="25" font-family="Virgil, Segoe UI Emoji" font-size="20px" fill="#1e1e1e" text-anchor="start" style="white-space: pre;" direction="ltr" dominant-baseline="text-before-edge">Liste des établissements et sites inclus dans l'organisation</text></g><g stroke-linecap="round" transform="translate(30 30) rotate(0 83.77354431152344 73.58488464355469)"><path d="M32 0 C61.28 0.35, 92.37 1.53, 135.55 0 M32 0 C67.96 1.12, 104.01 1.11, 135.55 0 M135.55 0 C156.98 0.96, 167.68 9.6, 167.55 32 M135.55 0 C155.92 1.95, 166.99 11.36, 167.55 32 M167.55 32 C168.54 59.63, 167.82 84.58, 167.55 115.17 M167.55 32 C167.6 49.68, 169.21 68.12, 167.55 115.17 M167.55 115.17 C169.07 135.08, 157.2 148.48, 135.55 147.17 M167.55 115.17 C165.86 135.71, 154.64 146.72, 135.55 147.17 M135.55 147.17 C109.91 147.35, 82.03 147.31, 32 147.17 M135.55 147.17 C98.35 147.59, 58.6 146.61, 32 147.17 M32 147.17 C12.42 146.92, 0.22 137.47, 0 115.17 M32 147.17 C11.11 149.26, 0.25 137.09, 0 115.17 M0 115.17 C1.36 84.8, 0.56 54.37, 0 32 M0 115.17 C-0.17 97.16, -1.38 79.85, 0 32 M0 32 C-0.42 11.58, 9.25 -0.37, 32 0 M0 32 C1.06 9.21, 11.98 -1.01, 32 0" stroke="#1e1e1e" stroke-width="2" fill="none"/></g><g transform="translate(42.99993896484375 88.19342041015625) rotate(0 72.52203174431793 7.405654907226548)"><text x="0" y="0" font-family="Virgil, Segoe UI Emoji" font-size="11.849047851562474px" fill="#1e1e1e" text-anchor="start" style="white-space: pre;" direction="ltr" dominant-baseline="text-before-edge">périmètre organisationnel</text></g><g transform="translate(224.99990844726562 135.6273193359375) rotate(0 440.7596435546875 12.5)"><text x="0" y="0" font-family="Virgil, Segoe UI Emoji" font-size="20px" fill="#1e1e1e" text-anchor="start" style="white-space: pre;" direction="ltr" dominant-baseline="text-before-edge">Liste des installations et équipements contrôlés par les établissements et sur les sites</text></g></svg>