<svg version="1.1" xmlns="http://www.w3.org/2000/svg" viewBox="0 0 559.5276744171977 193" width="559.5276744171977" height="193">
  <!-- svg-source:excalidraw -->
  <!-- payload-type:application/vnd.excalidraw+json --><!-- payload-version:2 --><!-- payload-start -->eyJ2ZXJzaW9uIjoiMSIsImVuY29kaW5nIjoiYnN0cmluZyIsImNvbXByZXNzZWQiOnRydWUsImVuY29kZWQiOiJ4nO2YX3PaOFx1MDAxMMDf+Vx1MDAxNFxmfW2o9c+S+lx1MDAxNmgy4Zrr9UJ6NHPTXHUwMDA3gYVRMJbPXHUwMDE2IVxcJ9/9ZIcg41x1MDAwMEdzN1x1MDAwZVx1MDAwZoVcdTAwMTnAuyvvand/lsT3RrPZMstEtt43W/J+JFwiXHUwMDE1pGLRepvL72SaKVx1MDAxZFtcdTAwMTUsrjM9T0eF5cSYJHv/7p1IknaozFDraXukZ4/DZCRnMjaZNfzTXjeb34vPkiORpvrRRyF2fny/Kvyk48Il8Fx1MDAwMOK+zzBeW6jsg3VlZGDVY1x1MDAxMWXSaXJRi11cdTAwMGZ7i25ncXpcdTAwMTmf85Pw5qZcdTAwMDMvI+d1rKKob5ZRXHUwMDExUabtxJ0uM6meyoFcbszEanFFvmtUqufhJJZZPnOwlupEjJRZXHUwMDE2c/DWUlx1MDAxMYfFPZzkvpg/aFx1MDAxM4hcYlx1MDAwMVx1MDAxY3tcdTAwMWOwtbJcdTAwMThOeNv3PYR9zjDzXHUwMDExZJW4ujrSaVx1MDAxZddcdTAwMWIg87eLbChG09CGXHUwMDE3XHUwMDA3a1x1MDAxYpOKOEtEaivl7Fx1MDAxNqtcdTAwMTlzvlx1MDAxNk2kXG4nZiPSTFx1MDAxNjmnXHUwMDA0Mc/nwNUsd5H0gqLy31xcolMxk718RDyPonK24mCVradcdTAwMGVxPVx1MDAwMleSXHUwMDA3N4fc/qzUW87DPFx0xGNcdTAwMWZcdTAwMDBcblx1MDAxOPNcdTAwMDBcdTAwMDNcdTAwMWNcIle2SMXTqvtIj6ZbWiczXCI1XHUwMDFkXHUwMDE1XHUwMDA3Klx1MDAwZatDZFx1MDAxY+zQRFwiM109myljw/isVWyqXHUwMDE2xX1P876fSPEsXHUwMDE39s5lXVx1MDAxNZAkv6PjKX+5X01XmeJi/fvb263WrrZcdTAwMTXzRvl7lffD0SVkXHUwMDE3upBBXHUwMDBmY4JdXHUwMDAz/Vx1MDAxYrndrzfgw6/h7cfw6vzLPPv4h7zoXVx1MDAxZju5cFx1MDAwZrmc1UUuhPA5uk60QpdTXHUwMDAwuI+Zy8/RoMt9TjyXn5/ollxmSsXNXyfQXHL4b/BiXlx1MDAxNT7Bi2xDc468w+FNVFx1MDAxMp5A0Vx1MDAxYv5O6Fmq0HTUXHUwMDE1g2OHXHUwMDE374ZcdTAwMTdiry54XHUwMDExd3HtXndcdTAwMDHDXHUwMDE2XHUwMDEx38PHSC+FnNOf9G6zLlW3Yn9cdTAwMTC8Rt6brVx1MDAwYu/OLbPdXHUwMDA0Qeoz/3B2T1x1MDAwNr+codHlX7dhkNxccsapJ/uX7LjZJYTsWXhcdTAwMTGtjV3YZohzXHUwMDA2PMrtYYW4XbFbhl2pVigzglx0tWH9XHUwMDBmJG8oflxmWU7Ji5BcdTAwMWTr2PTV38VTw9uQnouZipZcdTAwMWI1LdrXJrHTXHUwMDA1rVxy4WmkwryPW5FcdTAwMWNvNrhR9jy6Vlx1MDAxYp047cg6XHUwMDExKpbp86ToVIUqXHUwMDE20fU2h3Z28uKpXHUwMDFloF2qyFBkMtdcdTAwMTZcdTAwMGbYXHUwMDE3gYirsidcdTAwMTAxI1x1MDAxNKBcdTAwMWbhUFxyelx1MDAxMbi6/TTTXHUwMDFkOjCz8d2VmU6OnEOf7ttcdTAwMDCTujjEoO1cdTAwMTO7XHUwMDA2IWDPXHUwMDFjXGKUKryHQ1x1MDAxYlx1MDAxZkRcZoPXXHUwMDA1keVcdTAwMTHXXGJcIqxcdTAwMWJE+MogXHUwMDAySqFnt07s8D+RPodcdTAwMTc0XHUwMDA04us5XHUwMDAxJFie9iM2S387clx1MDAxMjnft5utk0TProiUeZBcIozoYSRaXHUwMDE0XHUwMDE5QeUj4GuQyCiqk0RUN4nohSQ2VrvblkiSvrFZW58hbJlUsJq6c966U3LR2d84jVx1MDAxNeE5TLI4lDw0XHUwMDFl/lx1MDAwMWdamc0ifQ==<!-- payload-end -->
  <defs>
    <style class="style-fonts">
      @font-face {
        font-family: "Virgil";
        src: url("https://unpkg.com/@excalidraw/excalidraw@undefined/dist/excalidraw-assets/Virgil.woff2");
      }
      @font-face {
        font-family: "Cascadia";
        src: url("https://unpkg.com/@excalidraw/excalidraw@undefined/dist/excalidraw-assets/Cascadia.woff2");
      }
      @font-face {
        font-family: "Assistant";
        src: url("https://unpkg.com/@excalidraw/excalidraw@undefined/dist/excalidraw-assets/Assistant-Regular.woff2");
      }
    </style>
    
  </defs>
  <rect x="0" y="0" width="559.5276744171977" height="193" fill="transparent"/><g stroke-linecap="round"><g transform="translate(136 52) rotate(0 49.5 0)"><path d="M-1.13 1.03 C15.62 0.71, 82.89 -0.72, 99.38 -1.08 M0.47 0.53 C17.2 0.24, 82.03 0.05, 98.64 -0.11" stroke="#1e1e1e" stroke-width="4" fill="none"/></g><g transform="translate(136 52) rotate(0 49.5 0)"><path d="M70.51 10.32 C77.91 9.09, 80.15 4.36, 98.64 -0.11 M70.51 10.32 C76.78 8.45, 81.19 6.68, 98.64 -0.11" stroke="#1e1e1e" stroke-width="4" fill="none"/></g><g transform="translate(136 52) rotate(0 49.5 0)"><path d="M70.38 -10.2 C77.97 -7.23, 80.23 -7.76, 98.64 -0.11 M70.38 -10.2 C76.75 -7.88, 81.19 -5.47, 98.64 -0.11" stroke="#1e1e1e" stroke-width="4" fill="none"/></g></g><mask/><g stroke-linecap="round"><g transform="translate(137 91) rotate(0 111 -1)"><path d="M-0.87 0.17 C36.1 0.04, 184.7 -1.41, 221.82 -1.65 M0.87 -0.79 C37.67 -1.22, 184.09 -3.19, 220.78 -3.59" stroke="#1e1e1e" stroke-width="4" fill="none"/></g><g transform="translate(137 91) rotate(0 111 -1)"><path d="M192.71 7.02 C201.45 3.75, 210.12 0.58, 220.78 -3.59 M192.71 7.02 C202.11 2.83, 212.9 -0.06, 220.78 -3.59" stroke="#1e1e1e" stroke-width="4" fill="none"/></g><g transform="translate(137 91) rotate(0 111 -1)"><path d="M192.46 -13.5 C201.12 -10.64, 209.87 -7.68, 220.78 -3.59 M192.46 -13.5 C201.93 -10.28, 212.81 -5.76, 220.78 -3.59" stroke="#1e1e1e" stroke-width="4" fill="none"/></g></g><mask/><g stroke-linecap="round"><g transform="translate(139 133) rotate(0 195 0)"><path d="M1.13 1.11 C66.39 1.06, 325.62 0.54, 390.53 0.17 M0.26 0.65 C65.5 0.78, 324.88 1.97, 389.86 1.8" stroke="#1e1e1e" stroke-width="4" fill="none"/></g><g transform="translate(139 133) rotate(0 195 0)"><path d="M361.65 12.02 C369.55 10.43, 374.07 8.34, 389.86 1.8 M361.65 12.02 C368.01 9.11, 373.97 7.67, 389.86 1.8" stroke="#1e1e1e" stroke-width="4" fill="none"/></g><g transform="translate(139 133) rotate(0 195 0)"><path d="M361.68 -8.5 C369.65 -5.67, 374.16 -3.33, 389.86 1.8 M361.68 -8.5 C368.06 -7.14, 374.02 -4.32, 389.86 1.8" stroke="#1e1e1e" stroke-width="4" fill="none"/></g></g><mask/><g transform="translate(30 30) rotate(0 16.41999053955078 12.5)"><text x="0" y="0" font-family="Virgil, Segoe UI Emoji" font-size="20px" fill="#1e1e1e" text-anchor="start" style="white-space: pre;" direction="ltr" dominant-baseline="text-before-edge">BC1</text></g><g transform="translate(42 88) rotate(0 20.829986572265625 12.5)"><text x="0" y="0" font-family="Virgil, Segoe UI Emoji" font-size="20px" fill="#1e1e1e" text-anchor="start" style="white-space: pre;" direction="ltr" dominant-baseline="text-before-edge">BC2</text></g><g transform="translate(74 138) rotate(0 20.519989013671875 12.5)"><text x="0" y="0" font-family="Virgil, Segoe UI Emoji" font-size="20px" fill="#1e1e1e" text-anchor="start" style="white-space: pre;" direction="ltr" dominant-baseline="text-before-edge">BC3</text></g></svg>